<?xml version="1.0" encoding="utf-8"?>
<!-- Generator: Adobe Illustrator 22.1.0, SVG Export Plug-In . SVG Version: 6.00 Build 0)  -->
<svg version="1.1" id="Layer_1" xmlns="http://www.w3.org/2000/svg" xmlns:xlink="http://www.w3.org/1999/xlink" x="0px" y="0px"
	 viewBox="0 0 400 400" style="enable-background:new 0 0 400 400;" xml:space="preserve">
<style type="text/css">
	.st0{fill:none;stroke:#939598;stroke-width:0.5;stroke-miterlimit:10;}
	.st1{fill:#6D6E71;}
	.st2{fill:#FFFFFF;stroke:#939598;stroke-width:0.5;stroke-miterlimit:10;}
	.st3{fill:#F0535C;}
	.st4{display:none;}
	.st5{fill:none;stroke:#016FB1;stroke-miterlimit:10;}
	.st6{fill:#016FB1;}
	.st7{fill:#137EBC;}
	.st8{fill:#EC2027;}
	.st9{fill:#DC2829;}
	.st10{fill:#CD3328;}
	.st11{fill:#D72928;}
	.st12{fill:#EF3E3D;}
	.st13{fill:#F15E5E;}
	.st14{fill:#F1A1A3;}
	.st15{opacity:0.18;fill:#016FB1;}
</style>
<circle id="circle_x5F_line" class="st0" cx="200" cy="200" r="180.9"/>
<g id="circle_x5F_texts">
	<g id="circle-text-advanced">
		<path class="st1" d="M49.9,179.6l-0.7,5.7l3.1,1.4l-0.5,4.5l-16.6-8.4l0.5-3.9l18.1-4.4l-0.5,4.5L49.9,179.6z M46.1,184l0.4-3.7
			l-6.2,1.2L46.1,184z"/>
		<path class="st1" d="M47.6,172c-1-0.2-1.8-0.5-2.6-0.9c-0.7-0.4-1.3-0.9-1.8-1.5c-0.5-0.6-0.8-1.2-1-1.9c-0.2-0.7-0.2-1.4,0-2.2
			c0.2-0.8,0.5-1.4,0.8-1.9c0.4-0.5,0.9-0.9,1.5-1.2l-6.6-1.5l0.5-2.2l18,4l-0.4,2l-1.4-0.2c0.4,0.5,0.7,1.1,0.8,1.8
			c0.1,0.7,0.1,1.4-0.1,2.2c-0.2,0.7-0.5,1.4-0.9,1.9c-0.5,0.5-1,1-1.7,1.3c-0.7,0.3-1.4,0.5-2.3,0.6c-0.8,0.1-1.7,0-2.6-0.2
			L47.6,172z M48.4,169.8c0.6,0.1,1.2,0.2,1.8,0.2c0.6,0,1.1-0.1,1.6-0.3c0.5-0.2,0.9-0.5,1.2-0.8c0.3-0.4,0.6-0.8,0.7-1.4
			c0.1-0.4,0.1-0.7,0.1-1.1c0-0.3-0.1-0.6-0.2-0.9c-0.1-0.3-0.3-0.5-0.4-0.8c-0.2-0.2-0.4-0.5-0.6-0.7l-5.8-1.3
			c-0.3,0.1-0.6,0.2-0.8,0.3c-0.3,0.1-0.5,0.3-0.7,0.5c-0.2,0.2-0.4,0.5-0.6,0.7s-0.3,0.6-0.4,1c-0.1,0.6-0.1,1.1,0,1.6
			c0.2,0.5,0.4,0.9,0.8,1.3c0.4,0.4,0.8,0.7,1.3,0.9c0.5,0.3,1.1,0.4,1.7,0.6L48.4,169.8z"/>
		<path class="st1" d="M55.8,154.3l-8.5-6.1l0.7-2.2l11,8.3l-0.5,1.6l-13.8,0.6l0.7-2.2L55.8,154.3z"/>
		<path class="st1" d="M64.1,140.6c-0.2,0-0.4,0-0.6-0.1s-0.5-0.1-0.7-0.2c0.1,0.3,0.2,0.6,0.3,0.9c0.1,0.3,0.1,0.6,0.2,1
			s0,0.7-0.1,1.1c-0.1,0.4-0.2,0.7-0.3,1.1c-0.3,0.6-0.6,1.1-1,1.6c-0.4,0.4-0.8,0.7-1.3,1c-0.5,0.2-0.9,0.3-1.5,0.3
			c-0.5,0-1-0.1-1.5-0.3c-0.6-0.3-1.2-0.6-1.5-1.1s-0.6-1-0.8-1.6c-0.1-0.6-0.2-1.3-0.1-2c0.1-0.7,0.3-1.5,0.7-2.3l0.8-2l-0.9-0.4
			c-0.7-0.3-1.4-0.3-2-0.1c-0.6,0.3-1.1,0.8-1.4,1.6c-0.2,0.4-0.3,0.8-0.3,1.1c0,0.4,0,0.7,0.1,1c0.1,0.3,0.2,0.6,0.4,0.8
			c0.2,0.2,0.4,0.4,0.6,0.5l-0.9,2.1c-0.4-0.2-0.8-0.5-1.1-0.9c-0.3-0.4-0.6-0.9-0.7-1.4c-0.2-0.6-0.2-1.2-0.2-1.8s0.2-1.4,0.5-2.1
			c0.3-0.6,0.6-1.2,1-1.7s0.8-0.8,1.3-1.1c0.5-0.3,1-0.4,1.6-0.4c0.6,0,1.2,0.1,1.9,0.4l5.6,2.3c0.4,0.2,0.8,0.3,1.3,0.4
			c0.5,0.1,0.9,0.2,1.3,0.2l0.2,0.1L64.1,140.6z M61.2,143.4c0.2-0.4,0.2-0.7,0.3-1.1c0-0.4,0-0.7,0-1.1c-0.1-0.3-0.2-0.6-0.3-0.9
			s-0.3-0.5-0.5-0.7l-2.5-1l-0.7,1.7c-0.5,1.2-0.7,2.2-0.6,2.9c0.1,0.8,0.5,1.3,1.3,1.6c0.3,0.1,0.6,0.2,0.9,0.2
			c0.3,0,0.6,0,0.8-0.2s0.5-0.3,0.7-0.5C60.8,144.1,61,143.8,61.2,143.4z"/>
		<path class="st1" d="M55.9,127.8l1.5,0.7c-0.3-0.7-0.4-1.4-0.4-2.1c0-0.7,0.2-1.5,0.6-2.2c0.3-0.6,0.6-1,1-1.4
			c0.4-0.4,0.8-0.6,1.3-0.8s1.1-0.2,1.7-0.1s1.3,0.4,2.1,0.7l7.5,4l-1,2l-7.5-4c-0.4-0.2-0.9-0.4-1.2-0.5s-0.7-0.1-1,0
			c-0.3,0.1-0.6,0.3-0.8,0.5c-0.2,0.2-0.5,0.5-0.7,0.9c-0.3,0.6-0.5,1.3-0.4,1.9c0.1,0.7,0.3,1.3,0.7,1.8l8.2,4.3l-1,2l-11.5-6
			L55.9,127.8z"/>
		<path class="st1" d="M74.4,118.4c0.2-0.3,0.4-0.7,0.5-1s0.1-0.7,0.1-1.1s-0.1-0.7-0.3-1c-0.2-0.3-0.4-0.6-0.7-0.8l1.1-1.8
			c0.5,0.3,0.8,0.8,1.1,1.3c0.3,0.5,0.5,1.1,0.5,1.7c0.1,0.6,0.1,1.2-0.1,1.9c-0.1,0.6-0.4,1.3-0.8,1.8c-0.5,0.8-1.1,1.4-1.8,1.9
			c-0.7,0.4-1.4,0.7-2.2,0.8c-0.8,0.1-1.5,0-2.3-0.2c-0.8-0.2-1.5-0.6-2.3-1l-0.4-0.3c-0.7-0.5-1.4-1-1.9-1.6
			c-0.5-0.6-0.9-1.3-1.1-2c-0.2-0.7-0.3-1.5-0.2-2.3c0.1-0.8,0.4-1.6,0.9-2.4c0.4-0.6,0.9-1.2,1.4-1.5s1.1-0.7,1.7-0.8
			s1.2-0.2,1.8-0.1c0.6,0.1,1.2,0.3,1.8,0.6l-1.1,1.8c-0.4-0.2-0.7-0.3-1.1-0.4c-0.4-0.1-0.7,0-1.1,0c-0.4,0.1-0.7,0.2-1,0.5
			s-0.6,0.5-0.9,0.9c-0.4,0.6-0.6,1.1-0.6,1.7c0,0.5,0.1,1,0.3,1.5c0.2,0.5,0.5,0.9,0.9,1.3c0.4,0.4,0.8,0.7,1.3,1l0.4,0.3
			c0.5,0.3,1,0.6,1.5,0.8c0.5,0.2,1,0.3,1.6,0.3c0.5,0,1-0.1,1.5-0.3C73.6,119.4,74,119,74.4,118.4z"/>
		<path class="st1" d="M83.5,108.7c-0.6,0.7-1.2,1.3-1.9,1.6c-0.7,0.4-1.4,0.6-2.2,0.7c-0.8,0.1-1.5,0-2.3-0.3
			c-0.8-0.3-1.5-0.7-2.2-1.2l-0.4-0.3c-0.8-0.6-1.5-1.4-1.9-2.1c-0.5-0.8-0.8-1.5-0.9-2.3c-0.1-0.8-0.1-1.5,0.1-2.2
			c0.2-0.7,0.5-1.4,0.9-1.9c0.6-0.7,1.2-1.3,1.9-1.6c0.7-0.3,1.4-0.5,2.1-0.5c0.7,0,1.4,0.2,2.2,0.5c0.7,0.3,1.5,0.7,2.2,1.3
			l0.8,0.6l-5.4,6.9c0.5,0.4,1,0.6,1.5,0.8s1,0.3,1.5,0.2c0.5,0,1-0.2,1.5-0.4s0.9-0.6,1.2-1c0.5-0.6,0.8-1.2,0.8-1.9s0-1.3-0.1-1.9
			l1.7-0.4c0.1,0.4,0.2,0.7,0.3,1.2c0.1,0.4,0.1,0.9,0,1.3s-0.2,0.9-0.4,1.4C84.2,107.7,83.9,108.2,83.5,108.7z M74.2,101.8
			c-0.3,0.4-0.5,0.7-0.6,1.1c-0.1,0.4-0.1,0.8-0.1,1.2c0.1,0.4,0.2,0.9,0.5,1.3c0.2,0.4,0.6,0.9,1,1.3l4-5.1l-0.1-0.1
			c-0.4-0.2-0.7-0.5-1.1-0.6s-0.8-0.3-1.2-0.3c-0.4,0-0.8,0.1-1.2,0.2C74.9,101.1,74.5,101.4,74.2,101.8z"/>
		<path class="st1" d="M83,98.5c-0.7-0.7-1.3-1.4-1.7-2.1c-0.4-0.7-0.7-1.5-0.8-2.2c-0.1-0.7-0.1-1.4,0.1-2.1s0.6-1.3,1.1-1.9
			c0.5-0.6,1.1-1,1.7-1.2s1.2-0.4,1.9-0.3L80.3,84l1.5-1.6L95.3,95l-1.4,1.5l-1.1-0.9c0.1,0.7,0,1.3-0.2,2c-0.2,0.6-0.6,1.3-1.2,1.9
			c-0.5,0.6-1.1,0.9-1.8,1.2s-1.4,0.3-2.1,0.2c-0.7-0.1-1.5-0.3-2.2-0.7c-0.8-0.4-1.5-0.9-2.2-1.5L83,98.5z M84.7,97
			c0.5,0.4,1,0.8,1.5,1.1c0.5,0.3,1,0.5,1.5,0.6c0.5,0.1,1,0.1,1.5-0.1c0.5-0.1,0.9-0.4,1.3-0.9c0.3-0.3,0.5-0.6,0.6-0.9
			s0.2-0.6,0.3-0.9c0-0.3,0.1-0.6,0-0.9c0-0.3-0.1-0.6-0.2-0.9l-4.3-4.1C86.6,90,86.3,90,86,90c-0.3,0-0.6,0-0.9,0.1
			c-0.3,0.1-0.6,0.2-0.9,0.4c-0.3,0.2-0.6,0.4-0.8,0.7c-0.4,0.4-0.7,0.9-0.8,1.4c-0.1,0.5-0.1,1,0,1.5s0.3,1,0.7,1.5
			c0.3,0.5,0.7,1,1.2,1.4L84.7,97z"/>
	</g>
	<g id="circle-text-product">
		<path class="st1" d="M318.2,101.1l-4.6,3.7l-2.6-3.3l13.6-11l4.4,5.4c0.8,1,1.4,2.1,1.7,3.2c0.3,1.1,0.2,2.2-0.1,3.2
			c-0.4,1-1,1.9-1.9,2.6c-1.3,1.1-2.8,1.5-4.3,1.1c-1.6-0.3-3-1.3-4.3-2.9L318.2,101.1z M320.8,99.1l1.7,2.1c0.5,0.6,1.1,1,1.6,1.1
			c0.6,0.1,1.2-0.1,1.7-0.6c0.6-0.5,1-1.1,1.1-1.7c0.1-0.6-0.1-1.3-0.6-1.9l-1.8-2.2L320.8,99.1z"/>
		<path class="st1" d="M333.7,113.5c-0.1-0.2-0.2-0.3-0.2-0.5c-0.1-0.1-0.2-0.3-0.3-0.5c-0.4-0.6-0.9-1.1-1.5-1.3s-1.1-0.3-1.7-0.1
			l-7.6,5.2l-1.2-1.8l10.7-7.3l1.2,1.8l-1.2,0.9c0.6,0,1.2,0.1,1.8,0.3c0.5,0.2,1,0.7,1.4,1.3c0.1,0.1,0.2,0.3,0.3,0.5
			c0.1,0.2,0.1,0.3,0.1,0.4L333.7,113.5z"/>
		<path class="st1" d="M331.2,117.6c0.8-0.5,1.6-0.8,2.5-1s1.6-0.2,2.4,0s1.5,0.4,2.1,0.9c0.7,0.5,1.2,1.1,1.7,1.9
			c0.5,0.8,0.7,1.6,0.8,2.4s0,1.6-0.3,2.3c-0.3,0.7-0.7,1.4-1.2,2.1c-0.6,0.6-1.2,1.2-2.1,1.7l-0.2,0.1c-0.8,0.5-1.6,0.8-2.5,1
			c-0.8,0.2-1.6,0.2-2.4,0c-0.8-0.1-1.5-0.5-2.1-0.9s-1.2-1.1-1.7-1.9c-0.5-0.8-0.7-1.6-0.8-2.4c-0.1-0.8,0-1.6,0.3-2.3
			c0.3-0.7,0.7-1.4,1.2-2.1c0.6-0.6,1.2-1.2,2.1-1.7L331.2,117.6z M332.1,119.6c-0.6,0.3-1.1,0.7-1.5,1.1c-0.4,0.4-0.7,0.9-1,1.4
			c-0.2,0.5-0.3,1-0.3,1.5c0,0.5,0.2,1.1,0.5,1.6c0.3,0.5,0.7,0.9,1.1,1.2c0.5,0.3,0.9,0.4,1.5,0.5c0.5,0,1.1,0,1.7-0.2
			c0.6-0.2,1.1-0.4,1.7-0.7l0.2-0.1c0.6-0.3,1-0.7,1.5-1.1c0.4-0.4,0.7-0.9,1-1.4c0.2-0.5,0.3-1,0.3-1.5c0-0.5-0.2-1.1-0.5-1.6
			c-0.3-0.5-0.7-0.9-1.1-1.2c-0.5-0.3-0.9-0.4-1.5-0.5c-0.5,0-1.1,0-1.7,0.2s-1.1,0.4-1.7,0.7L332.1,119.6z"/>
		<path class="st1" d="M338.4,130.4c0.9-0.4,1.8-0.7,2.6-0.8c0.8-0.1,1.6-0.1,2.3,0.1c0.7,0.2,1.3,0.5,1.9,0.9c0.6,0.4,1,1,1.3,1.7
			c0.3,0.7,0.5,1.4,0.5,2.1c0,0.6-0.1,1.3-0.4,1.9l6.1-2.8l0.9,2l-16.7,7.7l-0.8-1.9l1.2-0.7c-0.7-0.2-1.2-0.5-1.7-0.9
			c-0.5-0.4-0.9-1-1.3-1.8c-0.3-0.7-0.5-1.4-0.4-2.1c0-0.7,0.2-1.4,0.6-2c0.3-0.7,0.8-1.3,1.5-1.8c0.6-0.6,1.4-1,2.2-1.4
			L338.4,130.4z M339.1,132.5c-0.6,0.3-1.1,0.6-1.6,0.9c-0.5,0.4-0.8,0.8-1.1,1.2c-0.3,0.4-0.4,0.9-0.5,1.4s0.1,1,0.3,1.6
			c0.2,0.4,0.4,0.7,0.6,0.9c0.2,0.2,0.4,0.4,0.7,0.6c0.3,0.2,0.5,0.3,0.8,0.4c0.3,0.1,0.6,0.1,0.9,0.1l5.4-2.5
			c0.2-0.2,0.3-0.5,0.5-0.8c0.1-0.3,0.2-0.5,0.3-0.8c0-0.3,0-0.6,0-0.9c0-0.3-0.1-0.7-0.3-1c-0.3-0.6-0.6-1-1-1.3s-0.9-0.5-1.4-0.5
			c-0.5-0.1-1-0.1-1.6,0.1c-0.6,0.1-1.2,0.3-1.7,0.6L339.1,132.5z"/>
		<path class="st1" d="M342.2,153.5c-0.6-0.2-1.1-0.6-1.6-1.1c-0.5-0.5-0.8-1.2-1.1-2c-0.2-0.6-0.3-1.2-0.3-1.7s0.1-1.1,0.4-1.5
			s0.6-0.9,1.1-1.3c0.5-0.4,1.2-0.7,2-1l7.9-2.8l0.7,2.1l-7.9,2.8c-0.6,0.2-1,0.4-1.3,0.7c-0.3,0.3-0.5,0.5-0.7,0.8
			s-0.2,0.6-0.2,0.9c0,0.3,0.1,0.6,0.2,0.9c0.3,0.9,0.7,1.5,1.2,1.9c0.5,0.4,1.1,0.6,1.7,0.7l8.9-3.1l0.7,2.1l-12.2,4.3l-0.7-2
			L342.2,153.5z"/>
		<path class="st1" d="M345.4,164c0.1,0.4,0.2,0.7,0.5,1c0.2,0.3,0.5,0.6,0.7,0.8c0.3,0.2,0.6,0.4,0.9,0.5c0.3,0.1,0.7,0.1,1,0.1
			l0.5,2c-0.6,0.1-1.1,0.1-1.7-0.1c-0.6-0.1-1.1-0.4-1.6-0.8s-0.9-0.8-1.3-1.3c-0.4-0.5-0.6-1.1-0.8-1.8c-0.2-0.9-0.3-1.8-0.1-2.6
			c0.2-0.8,0.5-1.5,0.9-2.1s1-1.1,1.7-1.5c0.7-0.4,1.5-0.7,2.3-0.9l0.5-0.1c0.8-0.2,1.7-0.3,2.5-0.3c0.8,0,1.6,0.2,2.3,0.5
			c0.7,0.3,1.3,0.8,1.8,1.4c0.5,0.6,0.9,1.4,1.1,2.3c0.2,0.7,0.2,1.4,0.2,2.1c-0.1,0.7-0.3,1.3-0.6,1.8c-0.3,0.5-0.7,1-1.2,1.4
			c-0.5,0.4-1.1,0.7-1.7,0.9l-0.5-2c0.4-0.1,0.7-0.3,1-0.5c0.3-0.2,0.5-0.5,0.7-0.8c0.2-0.3,0.3-0.7,0.4-1.1c0.1-0.4,0-0.8-0.1-1.2
			c-0.2-0.7-0.4-1.2-0.8-1.6s-0.8-0.6-1.3-0.8s-1-0.2-1.6-0.2s-1.1,0.1-1.7,0.2l-0.5,0.1c-0.6,0.1-1.1,0.3-1.6,0.6
			c-0.5,0.2-0.9,0.5-1.3,0.9s-0.6,0.8-0.8,1.3C345.2,162.7,345.3,163.3,345.4,164z"/>
		<path class="st1" d="M362,172.2l-3.1,0.5l0.4,2.4l-1.7,0.3l-0.4-2.4l-7.9,1.4c-0.3,0.1-0.6,0.1-0.8,0.3c-0.2,0.1-0.3,0.2-0.4,0.4
			c-0.1,0.1-0.1,0.3-0.1,0.5s0,0.4,0,0.5c0,0.2,0.1,0.4,0.2,0.6c0.1,0.2,0.1,0.3,0.2,0.5l-1.8,0.3c-0.1-0.2-0.2-0.4-0.3-0.6
			c-0.1-0.3-0.2-0.6-0.3-1c-0.1-0.4-0.1-0.8,0-1.2s0.2-0.7,0.4-1s0.5-0.6,0.9-0.8c0.4-0.2,0.9-0.4,1.6-0.5l7.9-1.4l-0.4-2.3l1.7-0.3
			l0.4,2.3l3.1-0.5L362,172.2z"/>
	</g>
	<g id="circle_x5F_text-development">
		<path class="st1" d="M127.5,347.4l7-15.8l5.1,2.3c1.4,0.6,2.5,1.5,3.3,2.6c0.8,1.1,1.3,2.4,1.4,3.8c0.1,1.4-0.1,2.9-0.8,4.3
			l-0.3,0.7c-0.6,1.4-1.5,2.6-2.6,3.5c-1.1,0.9-2.4,1.4-3.8,1.5c-1.4,0.2-2.8-0.1-4.1-0.7L127.5,347.4z M137,336.3l-4.4,9.9l1.3,0.6
			c1.1,0.5,2.1,0.5,3,0c0.9-0.5,1.7-1.5,2.4-3.1l0.3-0.7c0.7-1.5,0.9-2.8,0.7-3.8c-0.2-1-0.9-1.8-2-2.3L137,336.3z"/>
		<path class="st1" d="M148.6,356.2c-0.8-0.3-1.6-0.7-2.2-1.2c-0.6-0.5-1-1.1-1.4-1.8c-0.3-0.7-0.5-1.4-0.5-2.2
			c0-0.8,0.1-1.6,0.4-2.5l0.2-0.5c0.3-1,0.8-1.8,1.3-2.5c0.6-0.7,1.2-1.2,1.8-1.6c0.7-0.4,1.4-0.6,2.1-0.7c0.7-0.1,1.4,0,2.1,0.2
			c0.9,0.3,1.6,0.7,2.1,1.2s0.9,1.1,1.1,1.8c0.2,0.7,0.3,1.4,0.3,2.2s-0.2,1.6-0.5,2.5l-0.3,0.9l-8.2-2.7c-0.2,0.6-0.3,1.1-0.2,1.7
			c0,0.5,0.1,1,0.3,1.5c0.2,0.5,0.5,0.9,0.8,1.2c0.4,0.4,0.8,0.6,1.4,0.8c0.7,0.2,1.4,0.3,2,0.2c0.6-0.1,1.2-0.4,1.7-0.7l0.9,1.4
			c-0.3,0.2-0.6,0.4-1,0.6s-0.8,0.3-1.2,0.4s-0.9,0.1-1.5,0.1C149.8,356.5,149.2,356.4,148.6,356.2z M152,345.2
			c-0.4-0.1-0.8-0.2-1.2-0.2c-0.4,0-0.8,0.2-1.2,0.4c-0.4,0.2-0.7,0.5-1.1,0.9c-0.3,0.4-0.6,0.8-0.9,1.4l6.1,2l0.1-0.2
			c0.1-0.4,0.2-0.8,0.2-1.3c0-0.4,0-0.8-0.2-1.2c-0.1-0.4-0.3-0.7-0.6-1.1C152.9,345.6,152.5,345.4,152,345.2z"/>
		<path class="st1" d="M161.9,356.6l5.4-8.8l2.2,0.5l-7.5,11.4l-1.6-0.4l-1.5-13.5l2.2,0.5L161.9,356.6z"/>
		<path class="st1" d="M174.9,362.5c-0.9-0.1-1.7-0.4-2.3-0.8s-1.2-0.9-1.6-1.6c-0.4-0.6-0.7-1.3-0.9-2.1c-0.2-0.8-0.2-1.6,0-2.5
			l0.1-0.5c0.2-1,0.5-1.9,0.9-2.7c0.4-0.8,1-1.4,1.6-1.9c0.6-0.5,1.3-0.8,2-1c0.7-0.2,1.4-0.2,2.1-0.1c0.9,0.1,1.7,0.4,2.3,0.8
			c0.6,0.4,1.1,0.9,1.4,1.6c0.3,0.6,0.5,1.3,0.6,2.1c0.1,0.8,0.1,1.6-0.1,2.5l-0.2,1l-8.6-1.3c-0.1,0.6-0.1,1.1,0,1.7
			c0.1,0.5,0.3,1,0.5,1.4c0.3,0.4,0.6,0.8,1,1.1s0.9,0.5,1.5,0.6c0.8,0.1,1.4,0.1,2-0.2c0.6-0.2,1.1-0.6,1.6-1l1.2,1.2
			c-0.3,0.3-0.5,0.5-0.9,0.8c-0.3,0.2-0.7,0.5-1.1,0.6c-0.4,0.2-0.9,0.3-1.4,0.3C176.1,362.6,175.5,362.6,174.9,362.5z M176.4,351.1
			c-0.4-0.1-0.9-0.1-1.2,0.1s-0.8,0.3-1.1,0.5s-0.6,0.6-0.9,1c-0.3,0.4-0.5,0.9-0.6,1.5l6.3,1l0-0.2c0-0.4,0-0.9,0-1.3
			c0-0.4-0.2-0.8-0.4-1.2c-0.2-0.4-0.5-0.7-0.8-0.9C177.4,351.3,176.9,351.2,176.4,351.1z"/>
		<path class="st1" d="M185.9,363.5l-2.2-0.2l1.7-18.1l2.2,0.2L185.9,363.5z"/>
		<path class="st1" d="M190.2,357.4c0-0.9,0.2-1.8,0.5-2.6c0.3-0.8,0.7-1.5,1.2-2c0.5-0.6,1.1-1,1.9-1.3s1.5-0.5,2.4-0.4
			c0.9,0,1.7,0.2,2.4,0.6c0.7,0.3,1.3,0.8,1.8,1.4s0.9,1.3,1.1,2.1c0.2,0.8,0.4,1.7,0.3,2.6l0,0.3c0,0.9-0.2,1.8-0.5,2.6
			c-0.3,0.8-0.7,1.5-1.2,2c-0.5,0.6-1.1,1-1.9,1.3s-1.5,0.5-2.4,0.4c-0.9,0-1.7-0.2-2.4-0.6c-0.7-0.3-1.3-0.8-1.8-1.4
			c-0.5-0.6-0.9-1.3-1.1-2.1c-0.3-0.8-0.4-1.7-0.3-2.6L190.2,357.4z M192.4,357.7c0,0.6,0,1.2,0.2,1.8c0.1,0.6,0.3,1.1,0.6,1.5
			s0.7,0.8,1.1,1.1s1,0.4,1.6,0.4c0.6,0,1.1-0.1,1.6-0.3c0.5-0.2,0.9-0.6,1.2-1s0.5-0.9,0.7-1.5s0.3-1.2,0.3-1.8l0-0.3
			c0-0.6,0-1.2-0.2-1.8c-0.1-0.6-0.4-1.1-0.6-1.5s-0.7-0.8-1.1-1.1s-1-0.4-1.6-0.4c-0.6,0-1.1,0.1-1.6,0.3c-0.5,0.2-0.8,0.6-1.2,1
			c-0.3,0.4-0.6,0.9-0.7,1.5s-0.3,1.2-0.3,1.8L192.4,357.7z"/>
		<path class="st1" d="M216.2,357.1c0.1,0.9,0,1.8-0.2,2.6c-0.2,0.8-0.4,1.5-0.8,2.1c-0.4,0.6-0.9,1.1-1.5,1.5
			c-0.6,0.4-1.3,0.6-2.1,0.6c-0.8,0.1-1.5,0-2.1-0.2c-0.6-0.2-1.2-0.5-1.6-1l0.4,6.2l-2.2,0.1l-1.2-17.7l2-0.1l0.2,1.4
			c0.4-0.6,0.9-1,1.5-1.3c0.6-0.3,1.3-0.5,2.1-0.6c0.8-0.1,1.5,0.1,2.2,0.3c0.6,0.3,1.2,0.7,1.7,1.2c0.5,0.5,0.8,1.2,1.1,2
			c0.3,0.8,0.4,1.7,0.5,2.6L216.2,357.1z M214,357c0-0.6-0.1-1.2-0.3-1.8s-0.4-1-0.7-1.4c-0.3-0.4-0.7-0.7-1.1-0.9s-1-0.3-1.6-0.3
			c-0.4,0-0.7,0.1-1,0.2c-0.3,0.1-0.6,0.2-0.8,0.4c-0.2,0.2-0.4,0.4-0.6,0.6c-0.2,0.2-0.3,0.5-0.5,0.7l0.4,6.1
			c0.2,0.2,0.3,0.5,0.5,0.7c0.2,0.2,0.4,0.4,0.7,0.5c0.3,0.1,0.5,0.2,0.9,0.3c0.3,0.1,0.7,0.1,1,0.1c0.6,0,1.1-0.2,1.5-0.5
			c0.4-0.3,0.7-0.6,1-1.1c0.3-0.4,0.4-1,0.5-1.5c0.1-0.6,0.1-1.2,0.1-1.8L214,357z"/>
		<path class="st1" d="M220.8,350.1l0.3,1.4c0.3-0.6,0.8-1.1,1.4-1.5c0.6-0.4,1.3-0.7,2.1-0.8c0.8-0.2,1.6-0.1,2.2,0.1
			c0.7,0.2,1.3,0.6,1.7,1.3c0.3-0.7,0.8-1.3,1.4-1.8c0.6-0.5,1.4-0.8,2.3-1c0.7-0.1,1.3-0.1,1.8-0.1c0.6,0.1,1,0.3,1.5,0.6
			c0.4,0.3,0.8,0.7,1.1,1.3s0.5,1.2,0.7,2l1.5,8.3l-2.2,0.4l-1.5-8.3c-0.1-0.5-0.2-1-0.4-1.3c-0.2-0.3-0.4-0.6-0.7-0.7
			s-0.6-0.3-0.9-0.3c-0.3,0-0.7,0-1.1,0.1c-0.4,0.1-0.8,0.2-1.1,0.4c-0.3,0.2-0.6,0.4-0.8,0.7c-0.2,0.3-0.3,0.6-0.4,0.9
			c-0.1,0.3-0.1,0.7-0.1,1.1l1.5,8.4l-2.2,0.4l-1.5-8.3c-0.1-0.5-0.2-0.9-0.4-1.2c-0.2-0.3-0.4-0.6-0.7-0.7
			c-0.3-0.2-0.6-0.3-0.9-0.3s-0.7,0-1.1,0.1c-0.8,0.1-1.4,0.4-1.8,0.8c-0.4,0.4-0.7,0.9-0.8,1.5l1.7,9.2l-2.2,0.4l-2.3-12.6
			L220.8,350.1z"/>
		<path class="st1" d="M248.7,357c-0.9,0.3-1.7,0.4-2.5,0.3c-0.8-0.1-1.5-0.3-2.1-0.7s-1.2-0.9-1.7-1.5s-0.9-1.4-1.1-2.3l-0.1-0.5
			c-0.3-1-0.4-1.9-0.4-2.8c0.1-0.9,0.3-1.7,0.6-2.3s0.8-1.3,1.3-1.8s1.2-0.8,1.9-1c0.9-0.3,1.7-0.3,2.4-0.2c0.7,0.1,1.4,0.4,2,0.8
			c0.6,0.4,1.1,1,1.5,1.6c0.4,0.7,0.8,1.4,1,2.3l0.3,0.9l-8.3,2.5c0.2,0.6,0.4,1.1,0.8,1.5s0.7,0.8,1.1,1.1s0.9,0.4,1.4,0.5
			c0.5,0.1,1,0,1.6-0.1c0.7-0.2,1.3-0.6,1.7-1s0.7-1,1-1.6l1.6,0.6c-0.1,0.4-0.3,0.7-0.4,1.1c-0.2,0.4-0.4,0.7-0.7,1.1
			s-0.7,0.6-1.1,0.9S249.3,356.8,248.7,357z M245.1,346.1c-0.4,0.1-0.8,0.3-1.1,0.6s-0.6,0.6-0.7,1c-0.2,0.4-0.3,0.8-0.4,1.3
			s0,1,0.1,1.6l6.1-1.9l0-0.2c-0.1-0.4-0.3-0.8-0.6-1.2c-0.2-0.4-0.5-0.7-0.8-0.9c-0.3-0.2-0.7-0.4-1.1-0.5
			C246.1,345.9,245.6,346,245.1,346.1z"/>
		<path class="st1" d="M254.3,341.3l0.7,1.5c0.2-0.7,0.5-1.3,1-1.9c0.5-0.5,1.1-1,1.8-1.3c0.6-0.2,1.1-0.4,1.7-0.4
			c0.5,0,1,0.1,1.5,0.3c0.5,0.2,0.9,0.6,1.3,1c0.4,0.5,0.8,1.1,1.1,1.9l3.2,7.8l-2,0.8l-3.2-7.8c-0.2-0.5-0.4-0.8-0.6-1.1
			c-0.2-0.3-0.5-0.5-0.8-0.6c-0.3-0.1-0.6-0.2-0.9-0.1s-0.7,0.1-1.1,0.3c-0.7,0.3-1.2,0.7-1.5,1.2c-0.4,0.6-0.6,1.2-0.6,1.9l3.4,8.5
			l-2,0.8l-4.8-11.9L254.3,341.3z"/>
		<path class="st1" d="M266.3,332.6l1.4,2.8l2.1-1.1l0.8,1.5l-2.1,1.1l3.5,7.1c0.1,0.3,0.3,0.5,0.5,0.7s0.3,0.2,0.5,0.3
			c0.2,0,0.3,0,0.5,0c0.2,0,0.3-0.1,0.5-0.2c0.2-0.1,0.3-0.2,0.5-0.3c0.2-0.1,0.3-0.2,0.4-0.3l0.8,1.6c-0.1,0.1-0.3,0.3-0.5,0.4
			c-0.2,0.2-0.5,0.3-0.9,0.5c-0.4,0.2-0.7,0.3-1.1,0.4c-0.4,0.1-0.7,0-1.1-0.1c-0.4-0.1-0.7-0.3-1-0.7c-0.3-0.3-0.6-0.8-0.9-1.3
			l-3.5-7.1l-2.1,1l-0.8-1.5l2.1-1l-1.4-2.8L266.3,332.6z"/>
	</g>
</g>
<g id="btn-i">
	<circle class="st2" cx="198.6" cy="96.3" r="14.2"/>
	<g id="letter-i">
		<g>
			<path class="st3" d="M197.2,88.7c0-0.4,0.1-0.7,0.4-1s0.6-0.4,1-0.4c0.4,0,0.7,0.1,1,0.4s0.4,0.6,0.4,1c0,0.4-0.1,0.7-0.4,1
				c-0.3,0.3-0.6,0.4-1,0.4s-0.7-0.1-1-0.4S197.2,89.1,197.2,88.7z M197.7,105.3V94.1h1.9v11.2H197.7z"/>
		</g>
	</g>
</g>
<g id="btn-s">
	<circle class="st2" cx="107" cy="253.7" r="14.2"/>
	<g id="letter-s">
		<g>
			<path class="st3" d="M102.8,257.3l1.6-1.1c0.3,0.6,0.7,1,1.2,1.3c0.5,0.3,1,0.4,1.7,0.4c0.6,0,1.1-0.2,1.5-0.5
				c0.4-0.3,0.6-0.7,0.6-1.2c0-0.4-0.1-0.7-0.4-1c-0.3-0.3-0.7-0.5-1.4-0.7c-0.1,0-0.2-0.1-0.3-0.1c-2.7-0.9-4.1-2.1-4.1-3.5
				c0-1,0.4-1.8,1.1-2.4c0.7-0.6,1.7-0.9,2.9-0.9c1,0,1.8,0.2,2.5,0.6c0.7,0.4,1.2,0.9,1.5,1.6l-1.6,1c-0.2-0.5-0.6-0.9-1-1.2
				c-0.4-0.3-1-0.4-1.5-0.4c-0.6,0-1,0.2-1.4,0.5c-0.4,0.3-0.5,0.7-0.5,1.2c0,0.7,0.7,1.3,2.2,1.7c0.3,0.1,0.5,0.2,0.7,0.2
				c1.2,0.4,2.1,0.8,2.5,1.3c0.5,0.5,0.7,1.2,0.7,2c0,1.1-0.4,1.9-1.1,2.6c-0.8,0.7-1.7,1-2.9,1c-1,0-1.9-0.2-2.7-0.6
				C103.8,258.7,103.2,258.1,102.8,257.3z"/>
		</g>
	</g>
</g>
<g id="btn-m">
	<circle class="st2" cx="287.9" cy="255.7" r="14.2"/>
	<g id="letter-m">
		<g>
			<path class="st3" d="M294.2,261v-6.1c0-1-0.2-1.8-0.6-2.3c-0.4-0.5-1.1-0.8-1.9-0.8c-0.5,0-0.9,0.1-1.3,0.3
				c-0.4,0.2-0.7,0.5-1,0.8c-0.2,0.3-0.3,0.6-0.4,0.9s-0.1,1-0.1,1.8v5.3h-1.7v-6.1c0-1-0.2-1.8-0.6-2.3c-0.4-0.5-1.1-0.8-1.9-0.8
				c-0.5,0-0.9,0.1-1.3,0.3c-0.4,0.2-0.8,0.5-1,0.8c-0.2,0.3-0.3,0.6-0.4,0.9s-0.1,0.9-0.1,1.8v5.3h-1.7v-10.3h1.7v1.6
				c0.4-0.7,0.9-1.1,1.5-1.5c0.6-0.3,1.3-0.5,2-0.5c0.8,0,1.5,0.2,2.1,0.5s1,0.9,1.3,1.6c0.4-0.7,1-1.2,1.6-1.6s1.3-0.5,2.1-0.5
				c1.1,0,2,0.3,2.7,1c0.6,0.6,1,1.5,1,2.7v7H294.2z"/>
		</g>
	</g>
</g>
<g class="st4">
	
		<text transform="matrix(1 0 0 1 -140.8342 57.5371)" style="display:inline;fill:#F0535C; font-family:'FuturaBT-Book'; font-size:25px;">i</text>
</g>
<g class="st4">
	
		<text transform="matrix(1 0 0 1 -236.5296 212.97)" style="display:inline;fill:#F0535C; font-family:'FuturaBT-Book'; font-size:25px;">s</text>
</g>
<g class="st4">
	
		<text transform="matrix(1 0 0 1 -57.9584 212.9701)" style="display:inline;fill:#F0535C; font-family:'FuturaBT-Book'; font-size:23px;">m</text>
</g>
<g id="circle-triangle">
	<g id="triangle-engineering">
		<line class="st5" x1="177.7" y1="134.7" x2="190.3" y2="112.8"/>
		<line class="st5" x1="117.5" y1="239.5" x2="128.6" y2="220.3"/>
		<g id="triangle-engineering-text">
			<g>
				<path class="st6" d="M137.9,213c-0.3,0.5-0.6,0.9-1.1,1.2c-0.4,0.3-0.9,0.5-1.3,0.6c-0.5,0.1-1,0.1-1.5,0s-1-0.3-1.6-0.6
					l-0.3-0.2c-0.6-0.3-1.1-0.7-1.4-1.2s-0.6-0.9-0.8-1.4c-0.1-0.5-0.2-1-0.1-1.4c0.1-0.5,0.2-0.9,0.4-1.3c0.3-0.5,0.7-0.9,1.1-1.2
					c0.4-0.3,0.8-0.4,1.3-0.5c0.5-0.1,0.9,0,1.5,0.1s1,0.4,1.5,0.6l0.6,0.3l-2.9,5c0.3,0.2,0.7,0.3,1,0.4c0.4,0.1,0.7,0.1,1,0
					c0.3-0.1,0.6-0.2,0.9-0.4c0.3-0.2,0.5-0.5,0.7-0.8c0.3-0.4,0.4-0.9,0.4-1.3c0-0.4-0.1-0.8-0.3-1.2l1-0.4
					c0.1,0.2,0.2,0.5,0.3,0.7c0.1,0.3,0.1,0.5,0.1,0.8c0,0.3,0,0.6-0.1,1S138.1,212.6,137.9,213z M131.2,209.4
					c-0.1,0.3-0.2,0.5-0.3,0.8c0,0.3,0,0.5,0.1,0.8c0.1,0.3,0.2,0.5,0.4,0.8c0.2,0.3,0.5,0.5,0.8,0.7l2.1-3.7l-0.1-0.1
					c-0.3-0.1-0.5-0.2-0.8-0.3c-0.3-0.1-0.5-0.1-0.8-0.1c-0.3,0-0.5,0.1-0.8,0.3C131.6,208.8,131.4,209,131.2,209.4z"/>
				<path class="st6" d="M133.7,202.9l0.9,0.5c-0.2-0.5-0.3-0.9-0.2-1.4c0-0.5,0.2-0.9,0.4-1.4c0.2-0.4,0.4-0.7,0.7-0.9
					c0.3-0.2,0.6-0.4,0.9-0.5c0.3-0.1,0.7-0.1,1.1,0c0.4,0.1,0.8,0.3,1.3,0.5l4.8,2.8l-0.7,1.3l-4.8-2.8c-0.3-0.2-0.5-0.3-0.8-0.3
					c-0.2-0.1-0.5-0.1-0.7,0c-0.2,0.1-0.4,0.2-0.5,0.3c-0.2,0.1-0.3,0.3-0.5,0.6c-0.2,0.4-0.3,0.8-0.3,1.3s0.2,0.8,0.4,1.2l5.2,3
					l-0.7,1.3l-7.3-4.2L133.7,202.9z"/>
				<path class="st6" d="M141.1,198.6c-0.6-0.3-1-0.7-1.4-1.1c-0.4-0.4-0.7-0.8-0.8-1.3c-0.2-0.4-0.3-0.9-0.2-1.3
					c0-0.5,0.2-0.9,0.4-1.4c0.3-0.5,0.6-0.8,0.9-1.1s0.8-0.4,1.2-0.5l-0.8-0.5l0.7-1.1l7.2,4.1c0.5,0.3,0.9,0.6,1.2,1
					c0.3,0.4,0.5,0.8,0.6,1.2s0.1,0.9,0,1.3c-0.1,0.5-0.3,0.9-0.5,1.4c-0.1,0.2-0.3,0.4-0.4,0.6c-0.2,0.2-0.4,0.4-0.6,0.6
					c-0.2,0.2-0.5,0.4-0.8,0.5c-0.3,0.1-0.6,0.2-0.9,0.2l-0.4-1.1c0.3,0,0.5-0.1,0.7-0.2c0.2-0.1,0.4-0.2,0.6-0.3
					c0.2-0.1,0.3-0.3,0.5-0.4c0.1-0.1,0.2-0.3,0.3-0.5c0.2-0.3,0.3-0.6,0.3-0.9c0.1-0.3,0-0.6,0-0.8c-0.1-0.3-0.2-0.5-0.4-0.7
					s-0.4-0.4-0.8-0.6l-0.6-0.4c0.1,0.4,0.2,0.8,0.1,1.2c0,0.4-0.2,0.9-0.5,1.3c-0.3,0.4-0.6,0.8-1,1s-0.8,0.4-1.3,0.5
					c-0.5,0.1-1,0-1.5-0.1c-0.5-0.1-1.1-0.3-1.6-0.7L141.1,198.6z M141.9,197.4c0.4,0.2,0.7,0.4,1.1,0.5s0.7,0.2,1,0.1
					c0.3,0,0.6-0.1,0.9-0.3s0.5-0.4,0.7-0.8c0.1-0.2,0.2-0.4,0.3-0.6c0-0.2,0.1-0.4,0.1-0.6s-0.1-0.4-0.1-0.6
					c-0.1-0.2-0.2-0.4-0.3-0.5l-3.3-1.9c-0.2,0-0.4,0-0.6,0c-0.2,0-0.4,0.1-0.6,0.2s-0.3,0.2-0.5,0.4c-0.2,0.1-0.3,0.3-0.4,0.5
					c-0.2,0.3-0.3,0.7-0.3,1c0,0.3,0.1,0.6,0.2,0.9c0.2,0.3,0.4,0.6,0.6,0.8s0.6,0.5,1,0.7L141.9,197.4z"/>
				<path class="st6" d="M140.3,187c-0.2-0.1-0.3-0.3-0.4-0.5c-0.1-0.2,0-0.4,0.1-0.7c0.1-0.2,0.3-0.4,0.5-0.4c0.2,0,0.4,0,0.6,0.1
					s0.3,0.3,0.4,0.5c0.1,0.2,0,0.4-0.1,0.7c-0.1,0.2-0.3,0.4-0.5,0.4C140.7,187.2,140.5,187.1,140.3,187z M150.4,191l-0.7,1.3
					l-7.3-4.2l0.7-1.3L150.4,191z"/>
				<path class="st6" d="M145.1,183.3l0.9,0.5c-0.2-0.5-0.3-0.9-0.2-1.4c0-0.5,0.2-0.9,0.4-1.4c0.2-0.4,0.4-0.7,0.7-0.9
					s0.6-0.4,0.9-0.5c0.3-0.1,0.7-0.1,1.1,0s0.8,0.3,1.3,0.5l4.8,2.8l-0.7,1.3l-4.8-2.8c-0.3-0.2-0.5-0.3-0.8-0.3
					c-0.2-0.1-0.5-0.1-0.7,0c-0.2,0.1-0.4,0.2-0.5,0.3s-0.3,0.3-0.5,0.6c-0.2,0.4-0.3,0.8-0.3,1.3c0,0.4,0.2,0.8,0.4,1.2l5.2,3
					l-0.7,1.3l-7.3-4.2L145.1,183.3z"/>
				<path class="st6" d="M158.2,177.8c-0.3,0.5-0.6,0.9-1.1,1.2c-0.4,0.3-0.9,0.5-1.3,0.6s-1,0.1-1.5,0c-0.5-0.1-1-0.3-1.6-0.6
					l-0.3-0.2c-0.6-0.3-1.1-0.7-1.4-1.2s-0.6-0.9-0.8-1.4s-0.2-1-0.1-1.4s0.2-0.9,0.4-1.3c0.3-0.5,0.7-0.9,1.1-1.2s0.8-0.4,1.3-0.5
					c0.5-0.1,0.9,0,1.5,0.1c0.5,0.1,1,0.4,1.5,0.6l0.6,0.3l-2.9,5c0.3,0.2,0.7,0.3,1,0.4c0.4,0.1,0.7,0.1,1,0s0.6-0.2,0.9-0.4
					c0.3-0.2,0.5-0.5,0.7-0.8c0.3-0.4,0.4-0.9,0.4-1.3s-0.1-0.8-0.3-1.2l1-0.4c0.1,0.2,0.2,0.5,0.3,0.7c0.1,0.3,0.1,0.5,0.1,0.8
					c0,0.3,0,0.6-0.1,1C158.5,177.1,158.4,177.5,158.2,177.8z M151.5,174.2c-0.1,0.3-0.2,0.5-0.3,0.8c0,0.3,0,0.5,0.1,0.8
					c0.1,0.3,0.2,0.5,0.4,0.8c0.2,0.3,0.5,0.5,0.8,0.7l2.1-3.7l-0.1-0.1c-0.3-0.1-0.5-0.2-0.8-0.3c-0.3-0.1-0.5-0.1-0.8-0.1
					c-0.3,0-0.5,0.1-0.8,0.3C151.9,173.6,151.7,173.9,151.5,174.2z"/>
				<path class="st6" d="M162.6,170.2c-0.3,0.5-0.6,0.9-1.1,1.2c-0.4,0.3-0.9,0.5-1.3,0.6c-0.5,0.1-1,0.1-1.5,0
					c-0.5-0.1-1-0.3-1.6-0.6l-0.3-0.2c-0.6-0.3-1.1-0.7-1.4-1.2c-0.4-0.4-0.6-0.9-0.8-1.4c-0.1-0.5-0.2-1-0.1-1.4
					c0.1-0.5,0.2-0.9,0.4-1.3c0.3-0.5,0.7-0.9,1.1-1.2c0.4-0.3,0.8-0.4,1.3-0.5c0.5-0.1,0.9,0,1.5,0.1c0.5,0.1,1,0.4,1.5,0.6
					l0.6,0.3l-2.9,5c0.3,0.2,0.7,0.3,1,0.4s0.7,0.1,1,0c0.3-0.1,0.6-0.2,0.9-0.4c0.3-0.2,0.5-0.5,0.7-0.8c0.3-0.4,0.4-0.9,0.4-1.3
					c0-0.4-0.1-0.8-0.3-1.2l1-0.4c0.1,0.2,0.2,0.5,0.3,0.7c0.1,0.3,0.1,0.5,0.1,0.8s0,0.6-0.1,1S162.8,169.9,162.6,170.2z
					 M155.9,166.6c-0.1,0.3-0.2,0.5-0.3,0.8c0,0.3,0,0.5,0.1,0.8c0.1,0.3,0.2,0.5,0.4,0.8c0.2,0.3,0.5,0.5,0.8,0.7l2.1-3.7l-0.1-0.1
					c-0.3-0.1-0.5-0.2-0.8-0.3c-0.3-0.1-0.5-0.1-0.8-0.1c-0.3,0-0.5,0.1-0.8,0.3C156.3,166,156.1,166.3,155.9,166.6z"/>
				<path class="st6" d="M160.9,158.4c-0.1,0.1-0.2,0.2-0.2,0.3c-0.1,0.1-0.1,0.2-0.2,0.3c-0.3,0.4-0.4,0.8-0.3,1.2
					c0,0.4,0.2,0.7,0.4,1.1l5.2,3l-0.7,1.3l-7.3-4.2l0.7-1.2l0.9,0.5c-0.2-0.4-0.3-0.7-0.3-1.1c0-0.4,0.1-0.8,0.3-1.2
					c0.1-0.1,0.1-0.2,0.2-0.3s0.2-0.2,0.2-0.2L160.9,158.4z"/>
				<path class="st6" d="M158.7,155.2c-0.2-0.1-0.3-0.3-0.4-0.5c-0.1-0.2,0-0.4,0.1-0.7s0.3-0.4,0.5-0.4s0.4,0,0.6,0.1
					c0.2,0.1,0.3,0.3,0.4,0.5s0,0.4-0.1,0.7s-0.3,0.4-0.5,0.4C159.1,155.4,158.9,155.4,158.7,155.2z M168.7,159.2l-0.7,1.3l-7.3-4.2
					l0.7-1.3L168.7,159.2z"/>
				<path class="st6" d="M163.4,151.5l0.9,0.5c-0.2-0.5-0.3-0.9-0.2-1.4c0-0.5,0.2-0.9,0.4-1.4c0.2-0.4,0.4-0.7,0.7-0.9
					c0.3-0.2,0.6-0.4,0.9-0.5c0.3-0.1,0.7-0.1,1.1,0c0.4,0.1,0.8,0.3,1.3,0.5l4.8,2.8l-0.7,1.3l-4.8-2.8c-0.3-0.2-0.5-0.3-0.8-0.3
					c-0.2-0.1-0.5-0.1-0.7,0c-0.2,0.1-0.4,0.2-0.5,0.3s-0.3,0.3-0.5,0.6c-0.2,0.4-0.3,0.8-0.3,1.3c0,0.4,0.2,0.8,0.4,1.2l5.2,3
					L170,157l-7.3-4.2L163.4,151.5z"/>
				<path class="st6" d="M170.7,147.2c-0.6-0.3-1-0.7-1.4-1.1s-0.7-0.8-0.8-1.3c-0.2-0.4-0.3-0.9-0.2-1.3s0.2-0.9,0.4-1.4
					c0.3-0.5,0.6-0.8,0.9-1.1c0.4-0.2,0.8-0.4,1.2-0.5l-0.8-0.5l0.7-1.1l7.2,4.1c0.5,0.3,0.9,0.6,1.2,1c0.3,0.4,0.5,0.8,0.6,1.2
					c0.1,0.4,0.1,0.9,0,1.3s-0.3,0.9-0.5,1.4c-0.1,0.2-0.3,0.4-0.4,0.6s-0.4,0.4-0.6,0.6c-0.2,0.2-0.5,0.4-0.8,0.5
					c-0.3,0.1-0.6,0.2-0.9,0.2l-0.4-1.1c0.3,0,0.5-0.1,0.7-0.2c0.2-0.1,0.4-0.2,0.6-0.3s0.3-0.3,0.5-0.4c0.1-0.1,0.2-0.3,0.3-0.5
					c0.2-0.3,0.3-0.6,0.3-0.9c0.1-0.3,0-0.6,0-0.8c-0.1-0.3-0.2-0.5-0.4-0.7c-0.2-0.2-0.4-0.4-0.8-0.6l-0.6-0.4
					c0.1,0.4,0.2,0.8,0.1,1.2c0,0.4-0.2,0.9-0.5,1.3c-0.3,0.4-0.6,0.8-1,1c-0.4,0.2-0.8,0.4-1.3,0.5c-0.5,0.1-1,0-1.5-0.1
					c-0.5-0.1-1.1-0.3-1.6-0.7L170.7,147.2z M171.6,146c0.4,0.2,0.7,0.4,1.1,0.5c0.4,0.1,0.7,0.2,1,0.1c0.3,0,0.6-0.1,0.9-0.3
					c0.3-0.2,0.5-0.4,0.7-0.8c0.1-0.2,0.2-0.4,0.3-0.6c0-0.2,0.1-0.4,0.1-0.6c0-0.2-0.1-0.4-0.1-0.6c-0.1-0.2-0.2-0.4-0.3-0.5
					l-3.3-1.9c-0.2,0-0.4,0-0.6,0c-0.2,0-0.4,0.1-0.6,0.2s-0.3,0.2-0.5,0.3c-0.2,0.1-0.3,0.3-0.4,0.5c-0.2,0.3-0.3,0.7-0.3,1
					c0,0.3,0.1,0.6,0.2,0.9c0.2,0.3,0.4,0.6,0.6,0.8c0.3,0.3,0.6,0.5,1,0.7L171.6,146z"/>
			</g>
		</g>
	</g>
	<g id="triangle-validation">
		<line class="st5" x1="267.8" y1="218.8" x2="279.8" y2="239.5"/>
		<line class="st5" x1="205.9" y1="112.8" x2="218.6" y2="134.7"/>
		<g id="triangle-validation-text">
			<g>
				<path class="st6" d="M225.2,150.4l6.7-1.4l0.7,1.3l-8.8,1.6l-0.6-1l5.8-6.9l0.7,1.3L225.2,150.4z"/>
				<path class="st6" d="M228.7,160.4c0.1-0.1,0.2-0.2,0.3-0.3c0.1-0.1,0.3-0.2,0.4-0.3c-0.2,0-0.4-0.1-0.6-0.2
					c-0.2-0.1-0.4-0.2-0.6-0.3c-0.2-0.1-0.4-0.3-0.5-0.5c-0.2-0.2-0.3-0.4-0.4-0.6c-0.2-0.4-0.4-0.7-0.4-1.1c-0.1-0.4-0.1-0.7,0-1
					c0.1-0.3,0.2-0.6,0.4-0.9c0.2-0.3,0.4-0.5,0.7-0.7c0.4-0.2,0.8-0.3,1.2-0.4c0.4,0,0.8,0.1,1.1,0.2c0.4,0.2,0.7,0.4,1.1,0.8
					c0.3,0.3,0.7,0.8,0.9,1.3l0.7,1.2l0.6-0.3c0.4-0.3,0.7-0.6,0.8-1c0.1-0.4,0-0.9-0.3-1.4c-0.1-0.2-0.3-0.4-0.5-0.6
					c-0.2-0.2-0.4-0.3-0.5-0.3c-0.2-0.1-0.4-0.1-0.6-0.1s-0.4,0.1-0.5,0.1l-0.7-1.3c0.3-0.2,0.6-0.2,0.9-0.2c0.3,0,0.7,0.1,1,0.2
					c0.4,0.1,0.7,0.3,1,0.6c0.3,0.3,0.6,0.6,0.9,1.1c0.2,0.4,0.4,0.8,0.5,1.2c0.1,0.4,0.1,0.8,0,1.1s-0.2,0.7-0.4,1
					c-0.2,0.3-0.5,0.6-1,0.8l-3.4,2c-0.2,0.1-0.5,0.3-0.7,0.5c-0.2,0.2-0.4,0.4-0.6,0.6l-0.1,0.1L228.7,160.4z M228.5,157.7
					c0.1,0.2,0.3,0.4,0.5,0.6c0.2,0.2,0.4,0.3,0.6,0.4c0.2,0.1,0.4,0.2,0.6,0.2c0.2,0,0.4,0.1,0.6,0l1.5-0.9l-0.6-1
					c-0.4-0.7-0.8-1.2-1.3-1.5s-0.9-0.3-1.3,0c-0.2,0.1-0.3,0.2-0.4,0.4c-0.1,0.1-0.2,0.3-0.2,0.5c0,0.2,0,0.4,0,0.6
					C228.3,157.3,228.4,157.5,228.5,157.7z"/>
				<path class="st6" d="M231.4,165l-0.7-1.3l10.4-6l0.7,1.3L231.4,165z"/>
				<path class="st6" d="M233.5,168.7l-0.7-1.3l7.3-4.2l0.7,1.3L233.5,168.7z M242,162c0.2-0.1,0.4-0.2,0.6-0.1
					c0.2,0,0.4,0.2,0.5,0.4c0.1,0.2,0.2,0.5,0.1,0.7c-0.1,0.2-0.2,0.4-0.4,0.5c-0.2,0.1-0.4,0.2-0.6,0.1c-0.2,0-0.4-0.2-0.5-0.4
					c-0.1-0.2-0.2-0.5-0.1-0.7C241.7,162.2,241.8,162.1,242,162z"/>
				<path class="st6" d="M238.4,168.5c0.6-0.3,1.1-0.5,1.6-0.7c0.5-0.1,1-0.2,1.5-0.1c0.5,0.1,0.9,0.2,1.3,0.5c0.4,0.3,0.7,0.6,1,1
					c0.3,0.4,0.4,0.9,0.4,1.3c0,0.4,0,0.8-0.2,1.2l3.8-2.2l0.7,1.3l-10.4,6l-0.7-1.2l0.8-0.5c-0.4-0.1-0.8-0.2-1.2-0.5
					c-0.4-0.3-0.7-0.6-0.9-1.1c-0.2-0.4-0.4-0.9-0.4-1.3c0-0.5,0.1-0.9,0.2-1.4s0.5-0.9,0.8-1.3c0.4-0.4,0.8-0.8,1.4-1.1
					L238.4,168.5z M239,169.8c-0.4,0.2-0.7,0.4-1,0.7c-0.3,0.3-0.5,0.5-0.6,0.8c-0.1,0.3-0.2,0.6-0.2,0.9s0.1,0.7,0.3,1
					c0.1,0.2,0.3,0.4,0.4,0.6c0.2,0.1,0.3,0.3,0.5,0.3s0.4,0.1,0.6,0.2c0.2,0,0.4,0,0.6,0l3.4-1.9c0.1-0.2,0.2-0.3,0.2-0.5
					s0.1-0.4,0.1-0.6c0-0.2,0-0.4-0.1-0.6c0-0.2-0.1-0.4-0.3-0.6c-0.2-0.3-0.4-0.6-0.7-0.8c-0.3-0.2-0.6-0.3-0.9-0.3
					c-0.3,0-0.7,0-1.1,0.1c-0.4,0.1-0.7,0.3-1.1,0.5L239,169.8z"/>
				<path class="st6" d="M242.1,183.6c0.1-0.1,0.2-0.2,0.3-0.3c0.1-0.1,0.3-0.2,0.4-0.3c-0.2,0-0.4-0.1-0.6-0.2s-0.4-0.2-0.6-0.3
					c-0.2-0.1-0.4-0.3-0.5-0.5c-0.2-0.2-0.3-0.4-0.4-0.6c-0.2-0.4-0.4-0.7-0.4-1.1s-0.1-0.7,0-1c0.1-0.3,0.2-0.6,0.4-0.9
					s0.4-0.5,0.7-0.7c0.4-0.2,0.8-0.3,1.2-0.4s0.8,0.1,1.1,0.2c0.4,0.2,0.7,0.4,1.1,0.8c0.3,0.3,0.7,0.8,0.9,1.3l0.7,1.2l0.6-0.3
					c0.4-0.3,0.7-0.6,0.8-1c0.1-0.4,0-0.9-0.3-1.4c-0.1-0.2-0.3-0.4-0.5-0.6c-0.2-0.2-0.4-0.3-0.5-0.4c-0.2-0.1-0.4-0.1-0.6-0.1
					c-0.2,0-0.4,0.1-0.5,0.1l-0.7-1.3c0.3-0.2,0.6-0.2,0.9-0.2c0.3,0,0.7,0,1,0.2c0.4,0.1,0.7,0.3,1,0.6c0.3,0.3,0.6,0.6,0.9,1.1
					c0.2,0.4,0.4,0.8,0.5,1.2s0.1,0.8,0,1.1s-0.2,0.7-0.4,1s-0.5,0.6-1,0.8l-3.4,2c-0.2,0.1-0.5,0.3-0.7,0.5
					c-0.2,0.2-0.4,0.4-0.6,0.6l-0.1,0.1L242.1,183.6z M241.9,180.9c0.1,0.2,0.3,0.4,0.5,0.6s0.4,0.3,0.6,0.4s0.4,0.2,0.6,0.2
					c0.2,0,0.4,0.1,0.6,0l1.5-0.9l-0.6-1c-0.4-0.7-0.8-1.2-1.3-1.5c-0.4-0.3-0.9-0.3-1.3,0c-0.2,0.1-0.3,0.2-0.4,0.4
					c-0.1,0.1-0.2,0.3-0.2,0.5c0,0.2,0,0.4,0,0.6C241.7,180.5,241.7,180.7,241.9,180.9z"/>
				<path class="st6" d="M254.1,183.3l-1.8,1l0.8,1.4l-1,0.6l-0.8-1.4l-4.5,2.6c-0.2,0.1-0.3,0.2-0.4,0.3s-0.1,0.2-0.2,0.3
					c0,0.1,0,0.2,0,0.3c0,0.1,0.1,0.2,0.1,0.3c0.1,0.1,0.1,0.2,0.2,0.3c0.1,0.1,0.2,0.2,0.2,0.2l-1,0.6c-0.1-0.1-0.2-0.2-0.3-0.3
					c-0.1-0.1-0.2-0.3-0.4-0.5c-0.1-0.2-0.2-0.5-0.3-0.7s0-0.5,0-0.7s0.2-0.5,0.4-0.7c0.2-0.2,0.5-0.5,0.8-0.7l4.5-2.6l-0.8-1.3
					l1-0.6l0.8,1.3l1.8-1L254.1,183.3z"/>
				<path class="st6" d="M247.6,193l-0.7-1.3l7.3-4.2l0.7,1.3L247.6,193z M256.1,186.3c0.2-0.1,0.4-0.2,0.6-0.1
					c0.2,0,0.4,0.2,0.5,0.4s0.2,0.5,0.1,0.7c-0.1,0.2-0.2,0.4-0.4,0.5c-0.2,0.1-0.4,0.2-0.6,0.1c-0.2,0-0.4-0.2-0.5-0.4
					s-0.2-0.5-0.1-0.7C255.7,186.6,255.9,186.4,256.1,186.3z"/>
				<path class="st6" d="M252.4,192.8c0.5-0.3,1.1-0.5,1.6-0.6c0.5-0.1,1.1-0.1,1.6,0c0.5,0.1,1,0.3,1.4,0.6
					c0.4,0.3,0.8,0.7,1.1,1.2c0.3,0.5,0.5,1,0.5,1.6s0,1-0.2,1.5c-0.2,0.5-0.4,0.9-0.8,1.3c-0.4,0.4-0.8,0.8-1.3,1.1l-0.1,0.1
					c-0.5,0.3-1.1,0.5-1.6,0.6c-0.5,0.1-1.1,0.1-1.6,0c-0.5-0.1-1-0.3-1.4-0.6c-0.4-0.3-0.8-0.7-1.1-1.2c-0.3-0.5-0.5-1-0.5-1.5
					c0-0.5,0-1,0.2-1.5c0.2-0.5,0.4-0.9,0.8-1.3c0.4-0.4,0.8-0.8,1.3-1.1L252.4,192.8z M253,194.2c-0.4,0.2-0.7,0.5-1,0.7
					c-0.3,0.3-0.5,0.6-0.6,0.9c-0.1,0.3-0.2,0.6-0.2,1c0,0.3,0.1,0.7,0.3,1c0.2,0.3,0.4,0.6,0.7,0.8s0.6,0.3,1,0.3
					c0.3,0,0.7,0,1.1-0.1c0.4-0.1,0.7-0.3,1.1-0.5l0.1-0.1c0.4-0.2,0.7-0.5,1-0.7s0.5-0.6,0.6-0.9c0.1-0.3,0.2-0.6,0.2-1
					c0-0.3-0.1-0.7-0.3-1c-0.2-0.3-0.4-0.6-0.7-0.8c-0.3-0.2-0.6-0.3-1-0.3c-0.3,0-0.7,0-1.1,0.1c-0.4,0.1-0.7,0.3-1.1,0.5
					L253,194.2z"/>
				<path class="st6" d="M261.6,200.4l-0.9,0.6c0.5,0.1,0.9,0.2,1.3,0.5s0.7,0.6,1,1.1c0.2,0.4,0.3,0.7,0.4,1.1c0.1,0.3,0.1,0.7,0,1
					c-0.1,0.3-0.3,0.6-0.6,0.9s-0.6,0.6-1.1,0.9l-4.8,2.8l-0.7-1.3l4.8-2.8c0.3-0.2,0.5-0.3,0.7-0.5s0.3-0.4,0.3-0.6
					c0.1-0.2,0.1-0.4,0-0.6c0-0.2-0.1-0.4-0.3-0.7c-0.2-0.4-0.5-0.7-0.9-0.9c-0.4-0.2-0.8-0.3-1.3-0.2l-5.2,3l-0.7-1.3l7.3-4.2
					L261.6,200.4z"/>
			</g>
		</g>
	</g>
	<g id="triangle-research">
		<line class="st5" x1="243.9" y1="256.1" x2="270.9" y2="256.1"/>
		<line class="st5" x1="125.5" y1="256.1" x2="152.4" y2="256.1"/>
		<g id="triangle-research-text">
			<g>
				<path class="st6" d="M169.4,253.1c-0.1,0-0.2,0-0.3,0c-0.1,0-0.2,0-0.4,0c-0.5,0-0.9,0.1-1.2,0.3c-0.3,0.2-0.6,0.5-0.7,0.9v6
					h-1.4v-8.5h1.4l0,1c0.2-0.3,0.5-0.6,0.8-0.8s0.7-0.3,1.2-0.3c0.1,0,0.2,0,0.4,0c0.1,0,0.2,0,0.3,0.1V253.1z"/>
				<path class="st6" d="M174.4,260.4c-0.6,0-1.1-0.1-1.6-0.3s-0.9-0.5-1.2-0.8c-0.3-0.4-0.6-0.8-0.8-1.3c-0.2-0.5-0.3-1-0.3-1.6
					V256c0-0.7,0.1-1.3,0.3-1.8c0.2-0.5,0.5-1,0.8-1.4s0.7-0.7,1.2-0.8c0.4-0.2,0.9-0.3,1.4-0.3c0.6,0,1.1,0.1,1.6,0.3
					s0.8,0.5,1.1,0.9c0.3,0.4,0.5,0.8,0.6,1.3c0.1,0.5,0.2,1.1,0.2,1.6v0.6h-5.7c0,0.4,0.1,0.8,0.2,1.1s0.3,0.6,0.5,0.9
					c0.2,0.3,0.5,0.4,0.8,0.6s0.6,0.2,1,0.2c0.5,0,0.9-0.1,1.3-0.3c0.4-0.2,0.7-0.5,0.9-0.8l0.9,0.7c-0.1,0.2-0.3,0.4-0.5,0.6
					c-0.2,0.2-0.4,0.4-0.7,0.5s-0.6,0.3-0.9,0.4C175.2,260.3,174.8,260.4,174.4,260.4z M174.2,252.8c-0.3,0-0.6,0.1-0.8,0.2
					c-0.2,0.1-0.5,0.3-0.7,0.5c-0.2,0.2-0.4,0.5-0.5,0.8c-0.1,0.3-0.2,0.6-0.3,1h4.2v-0.1c0-0.3-0.1-0.6-0.1-0.8
					c-0.1-0.3-0.2-0.5-0.4-0.7c-0.2-0.2-0.4-0.4-0.6-0.5S174.5,252.8,174.2,252.8z"/>
				<path class="st6" d="M184.6,258c0-0.2,0-0.3-0.1-0.4s-0.1-0.3-0.3-0.4c-0.1-0.1-0.3-0.2-0.6-0.3c-0.3-0.1-0.6-0.2-1-0.3
					c-0.5-0.1-0.9-0.2-1.3-0.4s-0.7-0.3-1-0.5c-0.3-0.2-0.5-0.4-0.6-0.7s-0.2-0.6-0.2-0.9c0-0.3,0.1-0.6,0.2-0.9s0.4-0.6,0.6-0.8
					c0.3-0.2,0.6-0.4,1-0.5c0.4-0.1,0.8-0.2,1.3-0.2c0.5,0,1,0.1,1.4,0.2s0.7,0.3,1,0.6c0.3,0.2,0.5,0.5,0.6,0.8
					c0.1,0.3,0.2,0.7,0.2,1h-1.5c0-0.2,0-0.3-0.1-0.5s-0.2-0.3-0.3-0.5c-0.2-0.1-0.3-0.3-0.6-0.3s-0.5-0.1-0.8-0.1
					c-0.3,0-0.6,0-0.8,0.1s-0.4,0.2-0.5,0.3c-0.1,0.1-0.2,0.3-0.3,0.4s-0.1,0.3-0.1,0.5s0,0.3,0.1,0.4c0.1,0.1,0.2,0.2,0.3,0.3
					c0.1,0.1,0.3,0.2,0.6,0.3c0.3,0.1,0.6,0.2,1,0.3c0.5,0.1,1,0.3,1.3,0.4c0.4,0.2,0.7,0.3,0.9,0.5s0.4,0.4,0.6,0.7
					c0.1,0.3,0.2,0.6,0.2,0.9c0,0.4-0.1,0.7-0.2,1c-0.2,0.3-0.4,0.6-0.7,0.8c-0.3,0.2-0.6,0.4-1,0.5c-0.4,0.1-0.8,0.2-1.3,0.2
					c-0.6,0-1.1-0.1-1.5-0.2s-0.8-0.4-1.1-0.6c-0.3-0.3-0.5-0.6-0.7-0.9c-0.2-0.3-0.2-0.7-0.2-1h1.4c0,0.3,0.1,0.5,0.2,0.7
					c0.1,0.2,0.3,0.4,0.5,0.5c0.2,0.1,0.4,0.2,0.6,0.3c0.2,0.1,0.5,0.1,0.7,0.1c0.3,0,0.6,0,0.8-0.1c0.2-0.1,0.4-0.1,0.6-0.3
					c0.2-0.1,0.3-0.2,0.3-0.4S184.6,258.1,184.6,258z"/>
				<path class="st6" d="M191.7,260.4c-0.6,0-1.1-0.1-1.6-0.3s-0.9-0.5-1.2-0.8c-0.3-0.4-0.6-0.8-0.8-1.3c-0.2-0.5-0.3-1-0.3-1.6
					V256c0-0.7,0.1-1.3,0.3-1.8c0.2-0.5,0.5-1,0.8-1.4s0.7-0.7,1.2-0.8c0.4-0.2,0.9-0.3,1.4-0.3c0.6,0,1.1,0.1,1.6,0.3
					s0.8,0.5,1.1,0.9c0.3,0.4,0.5,0.8,0.6,1.3c0.1,0.5,0.2,1.1,0.2,1.6v0.6h-5.7c0,0.4,0.1,0.8,0.2,1.1s0.3,0.6,0.5,0.9
					c0.2,0.3,0.5,0.4,0.8,0.6s0.6,0.2,1,0.2c0.5,0,0.9-0.1,1.3-0.3c0.4-0.2,0.7-0.5,0.9-0.8l0.9,0.7c-0.1,0.2-0.3,0.4-0.5,0.6
					c-0.2,0.2-0.4,0.4-0.7,0.5s-0.6,0.3-0.9,0.4C192.5,260.3,192.1,260.4,191.7,260.4z M191.5,252.8c-0.3,0-0.6,0.1-0.8,0.2
					c-0.2,0.1-0.5,0.3-0.7,0.5c-0.2,0.2-0.4,0.5-0.5,0.8c-0.1,0.3-0.2,0.6-0.3,1h4.2v-0.1c0-0.3-0.1-0.6-0.1-0.8
					c-0.1-0.3-0.2-0.5-0.4-0.7c-0.2-0.2-0.4-0.4-0.6-0.5S191.9,252.8,191.5,252.8z"/>
				<path class="st6" d="M202.2,260.2c-0.1-0.1-0.1-0.2-0.1-0.4s-0.1-0.3-0.1-0.5c-0.1,0.1-0.3,0.3-0.5,0.4s-0.4,0.2-0.6,0.3
					c-0.2,0.1-0.4,0.2-0.7,0.2s-0.5,0.1-0.7,0.1c-0.4,0-0.8-0.1-1.2-0.2s-0.7-0.3-0.9-0.5c-0.2-0.2-0.4-0.5-0.6-0.8
					c-0.1-0.3-0.2-0.6-0.2-1c0-0.5,0.1-0.9,0.3-1.2c0.2-0.3,0.4-0.6,0.8-0.9c0.3-0.2,0.7-0.4,1.2-0.5s1-0.2,1.6-0.2h1.4v-0.7
					c0-0.5-0.2-0.9-0.5-1.2s-0.7-0.4-1.3-0.4c-0.3,0-0.5,0-0.7,0.1c-0.2,0.1-0.4,0.2-0.6,0.3c-0.2,0.1-0.3,0.3-0.4,0.4
					c-0.1,0.2-0.1,0.3-0.1,0.5h-1.5c0-0.3,0.1-0.6,0.2-0.9c0.2-0.3,0.4-0.6,0.7-0.8c0.3-0.2,0.6-0.4,1.1-0.6s0.9-0.2,1.4-0.2
					c0.5,0,0.9,0.1,1.3,0.2s0.7,0.3,1,0.5s0.5,0.5,0.6,0.9s0.2,0.8,0.2,1.2v3.9c0,0.3,0,0.6,0.1,0.9s0.1,0.6,0.2,0.8v0.1H202.2z
					 M199.8,259.1c0.3,0,0.5,0,0.7-0.1c0.2-0.1,0.4-0.2,0.6-0.3s0.4-0.3,0.5-0.4s0.2-0.3,0.3-0.5v-1.7h-1.2c-0.8,0-1.5,0.1-1.9,0.4
					c-0.4,0.3-0.7,0.6-0.7,1.2c0,0.2,0,0.4,0.1,0.6c0.1,0.2,0.2,0.3,0.3,0.5c0.1,0.1,0.3,0.2,0.5,0.3
					C199.3,259.1,199.6,259.1,199.8,259.1z"/>
				<path class="st6" d="M210.1,253.1c-0.1,0-0.2,0-0.3,0s-0.2,0-0.4,0c-0.5,0-0.9,0.1-1.2,0.3s-0.6,0.5-0.7,0.9v6H206v-8.5h1.4l0,1
					c0.2-0.3,0.5-0.6,0.8-0.8s0.7-0.3,1.2-0.3c0.1,0,0.2,0,0.4,0s0.2,0,0.3,0.1V253.1z"/>
				<path class="st6" d="M215,259.2c0.3,0,0.5,0,0.7-0.1s0.4-0.2,0.6-0.3s0.3-0.3,0.4-0.5c0.1-0.2,0.2-0.4,0.2-0.7h1.4
					c0,0.4-0.1,0.7-0.3,1.1c-0.2,0.3-0.4,0.6-0.7,0.9c-0.3,0.3-0.7,0.5-1.1,0.6s-0.8,0.2-1.3,0.2c-0.6,0-1.2-0.1-1.7-0.3
					c-0.5-0.2-0.9-0.5-1.2-0.9s-0.5-0.8-0.7-1.3c-0.2-0.5-0.2-1-0.2-1.6v-0.3c0-0.6,0.1-1.1,0.2-1.6c0.2-0.5,0.4-1,0.7-1.3
					s0.7-0.7,1.2-0.9s1-0.3,1.7-0.3c0.5,0,0.9,0.1,1.3,0.2c0.4,0.2,0.8,0.4,1,0.6c0.3,0.3,0.5,0.6,0.7,1c0.2,0.4,0.3,0.8,0.3,1.2
					H217c0-0.3-0.1-0.5-0.2-0.7s-0.2-0.4-0.4-0.6s-0.4-0.3-0.6-0.4c-0.2-0.1-0.5-0.1-0.8-0.1c-0.4,0-0.8,0.1-1.1,0.3
					c-0.3,0.2-0.5,0.4-0.7,0.7s-0.3,0.6-0.4,1c-0.1,0.4-0.1,0.7-0.1,1.1v0.3c0,0.4,0,0.7,0.1,1.1c0.1,0.4,0.2,0.7,0.4,1
					c0.2,0.3,0.4,0.5,0.7,0.7S214.6,259.2,215,259.2z"/>
				<path class="st6" d="M221.8,252.8c0.3-0.4,0.7-0.7,1.1-0.9s0.9-0.3,1.4-0.3c0.4,0,0.8,0.1,1.1,0.2c0.3,0.1,0.6,0.3,0.9,0.5
					s0.4,0.6,0.5,1s0.2,0.9,0.2,1.4v5.5h-1.4v-5.6c0-0.3,0-0.6-0.1-0.8s-0.2-0.4-0.3-0.6s-0.3-0.3-0.5-0.3s-0.5-0.1-0.7-0.1
					c-0.5,0-0.9,0.1-1.2,0.4c-0.4,0.3-0.6,0.6-0.8,1v6h-1.4v-12h1.4V252.8z"/>
			</g>
		</g>
	</g>
</g>
<g id="circle-dots">
	<circle id="dot3" class="st1" cx="200.3" cy="44.6" r="3.8"/>
	<circle id="dot2" class="st1" cx="333.3" cy="278.2" r="3.8"/>
	<circle id="dot1" class="st1" cx="64.7" cy="278.2" r="3.8"/>
</g>
<g id="circle-logo">
	<g>
		<path class="st6" d="M218.2,205c4.3-7.1,7.1-15.1,8.1-23.7c-2.1-0.2-4.2-0.3-6.4-0.3c-3,0-6,0.2-8.8,0.7
			c-4.3,0.6-8.4,1.7-12.4,3.2c-0.2,3.4-0.7,6.8-1.5,10c-2-0.3-4.1-0.5-6.2-0.5c-3.7,0-7.2,0.5-10.6,1.4c-2.4,2.1-4.6,4.4-6.7,6.8
			c-3,3.6-5.6,7.5-7.7,11.7c5.4-1.6,11-2.4,16.9-2.4c2.4,0,4.8,0.1,7.1,0.4c-5.7,9.3-13.8,16.9-23.5,22h0.1
			c16.2,0,30.9-6.4,41.8-16.8c9,4.2,16.7,10.5,22.7,18.3c0-0.5,0-1,0-1.5C231,222.7,226.1,212.3,218.2,205z"/>
		<path class="st6" d="M211.1,181.5c-4.3,0.6-8.4,1.7-12.4,3.2c-0.2,3.4-0.7,6.8-1.5,10l8.3,11.1c1.4-2.6,2.5-5,3.3-7.4
			C212.2,188.9,211.1,181.6,211.1,181.5z"/>
		<path class="st7" d="M197.2,194.7c-2-0.3-4.1-0.5-6.2-0.5c-3.7,0-7.2,0.5-10.6,1.4c-2.4,2.1-4.6,4.4-6.7,6.8c0.2,0,9.6-1.9,21,0.2
			c3.5,0.6,7.1,1.6,10.8,3.2l0,0c0,0,0,0,0,0L197.2,194.7z"/>
		<polygon class="st7" points="205.5,205.9 205.5,205.9 205.5,205.9 		"/>
		<path class="st6" d="M218.2,205l-12.7,0.9l0,0c3,1.3,5.9,2.9,8.7,4.9c7,5.1,13.1,13,16.7,24.9c0-0.5,0-1,0-1.5
			C231,222.7,226.1,212.3,218.2,205z"/>
		<path class="st7" d="M220,180.9c-3,0-6,0.2-8.8,0.7c0,0.1,1.1,7.4-2.2,16.9c-0.8,2.4-1.9,4.9-3.3,7.4l0,0l12.7-0.9
			c4.3-7.1,7.1-15.1,8.1-23.7C224.3,181,222.1,180.9,220,180.9z"/>
		<polygon class="st7" points="205.5,205.9 205.5,205.9 205.5,205.9 205.5,205.9 		"/>
		<polygon class="st7" points="205.5,205.9 205.5,205.9 205.5,205.9 		"/>
		<path class="st7" d="M205.5,205.9l-15.5,6.4c-5.7,9.3-13.8,16.9-23.5,22h0.1c16.1-5.2,26.4-12.6,33.1-20.1
			C202.1,211.4,204,208.6,205.5,205.9C205.5,205.9,205.5,205.9,205.5,205.9z"/>
		<path class="st6" d="M194.8,202.7c-11.4-2.1-20.8-0.2-21-0.2c-3,3.6-5.6,7.5-7.7,11.7c5.4-1.6,11-2.4,16.9-2.4
			c2.4,0,4.8,0.1,7.1,0.4l15.5-6.4C201.9,204.3,198.2,203.3,194.8,202.7z"/>
		<path class="st6" d="M205.5,205.9C205.5,205.9,205.5,205.9,205.5,205.9c-1.5,2.7-3.5,5.5-5.9,8.3c-6.6,7.5-17,14.9-33.1,20.1
			c16.2,0,30.9-6.4,41.8-16.8L205.5,205.9z"/>
		<path class="st7" d="M214.3,210.8c-2.8-2.1-5.8-3.7-8.7-4.9l2.8,11.5c9,4.2,16.7,10.5,22.7,18.3
			C227.4,223.7,221.2,215.9,214.3,210.8z"/>
	</g>
	<g>
		<circle class="st8" cx="187.8" cy="184.5" r="7.9"/>
		<g>
			<path class="st8" d="M187.8,192.8c-0.8,0-1.7-0.1-2.5-0.4c-2.1-0.7-3.9-2.1-4.9-4.1l0,0c-2.1-4.1-0.6-9.1,3.5-11.2
				c2-1,4.2-1.2,6.3-0.6c2.1,0.7,3.9,2.1,4.9,4.1c2.1,4.1,0.6,9.1-3.5,11.2C190.4,192.5,189.1,192.8,187.8,192.8z M187.8,177
				c-1.2,0-2.4,0.3-3.5,0.9c-3.6,1.9-5,6.4-3.1,10.1l0,0c0.9,1.8,2.5,3.1,4.4,3.6c1.9,0.6,3.9,0.4,5.7-0.5c3.6-1.9,5-6.4,3.1-10.1
				c-0.9-1.8-2.5-3.1-4.4-3.6C189.2,177.1,188.5,177,187.8,177z"/>
		</g>
		<path class="st9" d="M188,184.9c-2.7,1.4-5.8,1.1-8.1-0.5c0,1.3,0.3,2.5,0.9,3.7c2,3.9,6.8,5.3,10.7,3.3c3.9-2,5.3-6.8,3.3-10.7
			c-0.6-1.2-1.5-2.1-2.5-2.8C192.2,180.8,190.7,183.5,188,184.9z"/>
		<path class="st10" d="M189.5,187.7c-3.2,1.7-7,0.9-9.4-1.6c0.1,0.7,0.4,1.4,0.7,2c2,3.9,6.8,5.3,10.7,3.3c3.9-2,5.3-6.8,3.3-10.7
			c-0.3-0.6-0.8-1.2-1.2-1.7C194.2,182.5,192.7,186,189.5,187.7z"/>
		<path class="st11" d="M190.9,190.5c-3.7,1.9-8.2,0.7-10.4-2.8c0.1,0.2,0.2,0.4,0.2,0.5c2,3.9,6.8,5.3,10.7,3.3
			c3.9-2,5.3-6.8,3.3-10.7c-0.1-0.2-0.2-0.3-0.3-0.5C196.1,184.1,194.6,188.5,190.9,190.5z"/>
		<path class="st12" d="M184.1,177.5c-1.9,1-3.2,2.7-3.8,4.6c2,0.9,4.3,1,6.2-0.1c2-1,3.2-2.9,3.6-5.1
			C188.1,176.4,186,176.5,184.1,177.5z"/>
		<path class="st13" d="M184.2,177.8c-1.2,0.6-2,1.6-2.5,2.6c1.1,0.4,2.5,0.3,3.7-0.3c1.2-0.6,2-1.7,2.3-2.9
			C186.7,177,185.4,177.1,184.2,177.8z"/>
		<path class="st14" d="M184.3,178.1c-0.6,0.3-1,0.7-1.2,1.2c0.5,0.1,1.2,0.1,1.8-0.2s1-0.8,1.2-1.3
			C185.5,177.7,184.9,177.8,184.3,178.1z"/>
		<path class="st15" d="M195.3,181c0.2,4.5-2.1,9-6.3,11.2c-0.4,0.2-0.9,0.4-1.3,0.6c1.3,0,2.7-0.3,3.9-1
			C195.6,189.8,197.1,185,195.3,181z"/>
	</g>
</g>
</svg>
